<svg width="48" height="47" viewBox="0 0 48 47" fill="none" xmlns="http://www.w3.org/2000/svg">
<path d="M24.0002 0C10.7469 0 0 10.7451 0 24.0002C0 34.6041 6.87675 43.6005 16.4128 46.7739C17.6123 46.9961 18.0527 46.2532 18.0527 45.6193C18.0527 45.0471 18.0302 43.1565 18.0201 41.1512C11.3432 42.6028 9.93431 38.3194 9.93431 38.3194C8.8425 35.5453 7.26938 34.8075 7.26938 34.8075C5.09194 33.318 7.43362 33.3488 7.43362 33.3488C9.84356 33.5179 11.1126 35.8219 11.1126 35.8219C13.2532 39.4909 16.7272 38.4302 18.0967 37.8169C18.3122 36.2659 18.9341 35.2069 19.6206 34.6076C14.2897 34.0009 8.68594 31.9429 8.68594 22.7468C8.68594 20.1264 9.62344 17.9854 11.1587 16.3046C10.9095 15.7001 10.0881 13.2592 11.3912 9.95325C11.3912 9.95325 13.4066 9.30825 17.9931 12.4134C19.9074 11.8817 21.9606 11.6151 24.0002 11.6059C26.0398 11.6151 28.0946 11.8815 30.0126 12.4134C34.5934 9.30844 36.606 9.95344 36.606 9.95344C37.9123 13.2591 37.0905 15.7003 36.8413 16.3046C38.3801 17.9854 39.3113 20.1264 39.3113 22.7468C39.3113 31.9648 33.6967 33.9945 28.3524 34.5887C29.2132 35.3334 29.9803 36.7941 29.9803 39.0332C29.9803 42.2443 29.9526 44.8288 29.9526 45.6193C29.9526 46.2581 30.3846 47.0064 31.6011 46.7706C41.1319 43.5937 48 34.6007 48 24.0004C48 10.7451 37.2546 0 24.0002 0ZM8.98894 34.1887C8.93606 34.308 8.74838 34.3438 8.57756 34.2619C8.40338 34.1837 8.30569 34.0211 8.36194 33.9015C8.41369 33.7787 8.60175 33.7444 8.77537 33.8267C8.94975 33.9051 9.04913 34.0691 8.98894 34.1887ZM10.1694 35.2421C10.0551 35.3482 9.83119 35.2989 9.67931 35.1313C9.52238 34.9641 9.49294 34.7402 9.609 34.6326C9.72713 34.5264 9.94406 34.5761 10.1014 34.7434C10.2585 34.9127 10.2889 35.1349 10.1694 35.2421ZM10.9794 36.5899C10.8322 36.6921 10.5919 36.5963 10.4432 36.3829C10.2962 36.1695 10.2962 35.9136 10.4464 35.811C10.5954 35.7084 10.8323 35.8007 10.9828 36.0126C11.1294 36.2295 11.1294 36.4854 10.9792 36.5901M12.3488 38.151C12.2173 38.2961 11.937 38.2571 11.7319 38.0591C11.5221 37.8656 11.4638 37.5911 11.5958 37.446C11.7289 37.3005 12.0107 37.3414 12.2173 37.5379C12.4254 37.731 12.4892 38.0076 12.3488 38.151ZM14.1191 38.6779C14.061 38.8659 13.791 38.9514 13.5193 38.8716C13.2478 38.7893 13.0703 38.5691 13.125 38.3792C13.1814 38.1898 13.4526 38.1009 13.7263 38.1864C13.9974 38.2682 14.1756 38.4868 14.1191 38.6781M16.1336 38.9017C16.1404 39.0996 15.9099 39.2636 15.6246 39.2674C15.3377 39.2737 15.1054 39.1136 15.1022 38.9186C15.1022 38.7189 15.3276 38.5564 15.6146 38.5515C15.9 38.5459 16.1336 38.7049 16.1336 38.9017ZM18.1127 38.8258C18.1468 39.0189 17.9486 39.2173 17.6651 39.2702C17.3867 39.321 17.1287 39.2017 17.0933 39.0103C17.0588 38.8123 17.2607 38.6139 17.5388 38.5627C17.8226 38.5134 18.0765 38.6295 18.1127 38.8258Z" fill="#CBACF9"/>
</svg>
